HIERARCHY
ROOT Hips
{
	OFFSET 0.00000 0.00000 0.00000
	CHANNELS 6 Xposition Yposition Zposition Yrotation Zrotation Xrotation 
	JOINT Lumbar
	{
		OFFSET 0 0 0
		CHANNELS 3 Zrotation Xrotation Yrotation
		JOINT Neck
		{
			OFFSET 0.00 0.2701 0.00
			CHANNELS 3 Zrotation Xrotation Yrotation
			End Site
			{
				OFFSET 0.00 0.1379 0.00
			}
		}
		JOINT RightShoulder
		{
			OFFSET 0.0119 0.2289 0.1181
			CHANNELS 3 Zrotation Xrotation Yrotation
			JOINT RightElbow
			{
				OFFSET 0.00 -0.1475 0.00
				CHANNELS 2 Zrotation Yrotation
				JOINT RightWrist
				{
					OFFSET 0.00 -0.1605 0.00
					CHANNELS 2 Zrotation Xrotation
					End Site
					{
						OFFSET 0.0040 -0.1068 0.0006
					}
				}
			}
		}
		JOINT LeftShoulder
		{
			OFFSET 0.0119 0.2289 -0.1181
			CHANNELS 3 Zrotation Xrotation Yrotation
			JOINT LeftElbow
			{
				OFFSET 0.00 -0.1475 0.00
				CHANNELS 2 Zrotation Yrotation
				JOINT LeftWrist
				{
					OFFSET 0.00 -0.1605 0.00
					CHANNELS 2 Zrotation Xrotation
					End Site
					{
						OFFSET 0.0040 -0.1068 -0.0006
					}
				}
			}
		}
	}
	JOINT RightHip
	{
		OFFSET 0.0316 -0.0424 0.0458
		CHANNELS 3 Zrotation Xrotation Yrotation
		JOINT RightKnee
		{
			OFFSET 0.00 -0.2438 0.00
			CHANNELS 1 Zrotation
			JOINT RightAnkle
			{
				OFFSET 0.00 -0.2449 0.00
				CHANNELS 3 Zrotation Xrotation Yrotation
				End Site
				{
					OFFSET 0.1237 -0.0542 0.0051
				}
			}
		}
	}
	JOINT LeftHip
	{
		OFFSET 0.0316 -0.0424 -0.0458
		CHANNELS 3 Zrotation Xrotation Yrotation
		JOINT LeftKnee
		{
			OFFSET 0.00 -0.2438 0.00
			CHANNELS 1 Zrotation
			JOINT LeftAnkle
			{
				OFFSET 0.00 -0.2449 0.00
				CHANNELS 3 Zrotation Xrotation Yrotation
				End Site
				{
					OFFSET 0.1237 -0.0542 -0.0051
				}
			}
		}
	}
}
MOTION
Frames: 26
Frame Time: 0.02
0 0.57926 -0 183.76199 0 -3.65153 2.10446 3.03849 -2.38387 -46.14055 3.94631 1.50384 -11.40013 -70.38594 -89.74216 29.56657 77.33872 -18.66139 -2.57007 -3.02276 70.55866 80.62592 24.28496 -68.92815 -33.13546 2.21994 -5.46224 1.20388 2.8391 -5.48402 -1.54295 -3.8157 -6.84217 -2.35489 7.56053 -2.73185 -7.72395 6.31381 2.61652 0.76834
2e-05 0.57926 1e-05 183.73883 0 -3.6535 2.10234 3.03841 -2.38989 -46.09969 3.9519 1.50989 -11.38075 -70.39467 -89.73627 29.58037 77.00894 -18.62186 -2.66477 -3.01603 70.52434 80.60813 24.27301 -68.97256 -33.10792 2.22807 -5.45634 1.20276 2.86145 -5.48294 -1.53662 -3.81659 -6.85352 -2.36084 7.56028 -2.71951 -7.71852 6.31389 2.61788 0.78031
4e-05 0.57926 1e-05 183.71584 0 -3.65545 2.10025 3.03833 -2.39589 -46.05904 3.95747 1.5159 -11.36136 -70.40334 -89.73034 29.59402 76.68359 -18.58246 -2.75822 -3.00903 70.49029 80.59003 24.26112 -69.01676 -33.08066 2.23613 -5.45048 1.20165 2.88358 -5.48186 -1.53037 -3.81745 -6.86466 -2.36677 7.56004 -2.70719 -7.7131 6.31397 2.61922 0.79213
6e-05 0.57926 2e-05 183.69337 0 -3.65737 2.09825 3.03826 -2.40184 -46.01874 3.96299 1.52187 -11.34219 -70.41166 -89.72536 29.60723 76.37275 -18.54215 -2.84771 -3.00112 70.45706 80.57064 24.24934 -69.06046 -33.05413 2.24397 -5.44481 1.20055 2.90502 -5.48071 -1.52439 -3.81821 -6.87499 -2.37265 7.55982 -2.6948 -7.70764 6.31407 2.62045 0.80335
8e-05 0.57926 3e-05 183.6682 0 -3.6595 2.09576 3.03814 -2.40805 -45.9765 3.96872 1.5281 -11.32242 -70.4216 -89.71675 29.6228 75.9851 -18.50539 -2.95829 -2.99832 70.41963 80.55828 24.23694 -69.10669 -33.02362 2.25292 -5.43822 1.19941 2.93009 -5.47986 -1.51698 -3.81951 -6.88951 -2.3788 7.55948 -2.68273 -7.70238 6.31403 2.62222 0.81761
0.0001 0.57926 3e-05 183.64875 0 -3.66118 2.09432 3.03813 -2.41372 -45.93843 3.97403 1.53374 -11.30352 -70.42828 -89.71489 29.63332 75.76025 -18.46203 -3.0241 -2.98454 70.39102 80.53094 24.2259 -69.14758 -33.0016 2.25955 -5.43356 1.19834 2.9475 -5.47841 -1.51259 -3.81968 -6.89522 -2.38436 7.5594 -2.67004 -7.69673 6.31431 2.62286 0.82549
0.0001 0.57926 4e-05 183.64533 0 -3.66162 2.09566 3.03832 -2.41771 -45.91106 3.97807 1.53797 -11.2904 -70.42427 -89.74061 29.63008 75.99533 -18.39099 -2.96396 -2.94061 70.3875 80.46081 24.2182 -69.17389 -33.00301 2.2594 -5.43438 1.19748 2.94315 -5.4751 -1.51687 -3.81658 -6.87523 -2.38849 7.5601 -2.65477 -7.68946 6.31545 2.62028 0.81476
0.0001 0.57926 4e-05 183.64766 0 -3.66161 2.09806 3.03866 -2.42119 -45.88799 3.9817 1.54155 -11.27777 -70.41725 -89.77177 29.6217 76.39272 -18.31477 -2.85912 -2.88564 70.39275 80.37572 24.21194 -69.19476 -33.01303 2.25697 -5.43713 1.19667 2.93119 -5.47121 -1.52414 -3.81239 -6.84658 -2.392 7.56104 -2.639 -7.68188 6.31691 2.61659 0.79776
0.0001 0.57926 5e-05 183.64719 0 -3.66179 2.10006 3.03899 -2.42505 -45.86345 3.98562 1.54528 -11.2624 -70.4127 -89.79437 29.61557 76.71002 -18.24721 -2.77595 -2.83543 70.39347 80.29836 24.2053 -69.2181 -33.01902 2.25586 -5.43889 1.19582 2.92311 -5.46774 -1.52986 -3.80882 -6.82272 -2.39566 7.56181 -2.62403 -7.6748 6.31826 2.61349 0.7843
0.0001 0.57925 5e-05 183.64747 0 -3.662 2.10174 3.03904 -2.42831 -45.83692 3.98914 1.54962 -11.25667 -70.40358 -89.84171 29.60982 77.05575 -18.15377 -2.68642 -2.78585 70.39643 80.21723 24.19755 -69.24167 -33.02529 2.25361 -5.4411 1.19507 2.91326 -5.46367 -1.53642 -3.80472 -6.7952 -2.39986 7.56285 -2.6067 -7.66627 6.31947 2.61001 0.768
0.0001 0.57925 6e-05 183.64759 0 -3.66206 2.1043 3.03976 -2.43267 -45.81548 3.99336 1.55252 -11.23219 -70.40318 -89.84003 29.60202 77.37864 -18.11211 -2.60033 -2.73291 70.39688 80.14023 24.19237 -69.26318 -33.03329 2.25312 -5.44285 1.19411 2.90528 -5.46065 -1.54191 -3.80145 -6.77332 -2.4028 7.56337 -2.5941 -7.66062 6.32103 2.60705 0.75603
9e-05 0.57925 6e-05 183.64559 0 -3.66185 2.10936 3.04196 -2.44033 -45.80787 3.99991 1.55158 -11.14576 -70.42814 -89.69131 29.59044 77.61808 -18.22276 -2.52758 -2.66891 70.3876 80.08008 24.19487 -69.28288 -33.04183 2.25856 -5.44269 1.19253 2.90452 -5.46103 -1.54404 -3.80074 -6.76854 -2.40232 7.56243 -2.59531 -7.66344 6.32379 2.60596 0.75825
9e-05 0.57925 7e-05 183.64326 0 -3.66152 2.11518 3.0449 -2.44907 -45.80507 4.00712 1.5492 -11.04243 -70.46183 -89.49509 29.57697 77.82575 -18.38455 -2.461 -2.60298 70.37557 80.02458 24.19982 -69.30029 -33.05222 2.26576 -5.44204 1.19073 2.90589 -5.46242 -1.54493 -3.80091 -6.76983 -2.40061 7.56096 -2.60116 -7.66912 6.32684 2.6054 0.76492
9e-05 0.57924 8e-05 183.64126 0 -3.66124 2.12043 3.04774 -2.45723 -45.79951 4.01384 1.54746 -10.95328 -70.49119 -89.32731 29.56385 78.03475 -18.51717 -2.39646 -2.5406 70.36525 79.96541 24.20298 -69.31701 -33.06317 2.27178 -5.44175 1.18904 2.90616 -5.46309 -1.54617 -3.80066 -6.76878 -2.39955 7.55972 -2.60448 -7.67317 6.32958 2.60449 0.76911
8e-05 0.57924 9e-05 183.63874 0 -3.66096 2.12672 3.04957 -2.46576 -45.79654 4.02137 1.54575 -10.83626 -70.5221 -89.13043 29.55231 78.30304 -18.67314 -2.31057 -2.46561 70.35343 79.91107 24.20878 -69.34058 -33.06848 2.27926 -5.44097 1.18734 2.90668 -5.46477 -1.54838 -3.80041 -6.76577 -2.39811 7.55854 -2.60958 -7.6785 6.33308 2.60399 0.775
8e-05 0.57924 0.0001 183.6371 0 -3.66066 2.13096 3.0537 -2.47378 -45.78927 4.02734 1.54364 -10.77385 -70.55173 -88.98327 29.53759 78.44033 -18.79456 -2.27035 -2.41773 70.34381 79.84951 24.20996 -69.34976 -33.08588 2.28423 -5.44102 1.18558 2.90734 -5.46466 -1.54829 -3.80042 -6.76828 -2.39713 7.5571 -2.61207 -7.68197 6.33508 2.60281 0.77851
8e-05 0.57924 0.00012 183.63856 0 -3.66046 2.12964 3.06395 -2.48017 -45.76889 4.02913 1.54095 -10.8611 -70.57714 -88.98082 29.51019 78.20411 -18.79191 -2.36229 -2.43501 70.34203 79.75352 24.19496 -69.31684 -33.13598 2.28106 -5.44391 1.18376 2.90755 -5.45887 -1.54151 -3.80077 -6.78541 -2.39809 7.55514 -2.60638 -7.6787 6.33267 2.59939 0.77416
9e-05 0.57924 0.00015 183.6408 0 -3.66025 2.12617 3.0765 -2.486 -45.74406 4.02931 1.53791 -11.00457 -70.6007 -89.03063 29.48045 77.83985 -18.75567 -2.4989 -2.48138 70.34225 79.65257 24.17572 -69.27012 -33.19809 2.27544 -5.44755 1.18187 2.90793 -5.45134 -1.53254 -3.80139 -6.80775 -2.39949 7.55293 -2.59791 -7.67361 6.32876 2.59531 0.76734
9e-05 0.57924 0.00017 183.64229 0 -3.66 2.12347 3.08808 -2.49202 -45.72121 4.02998 1.53492 -11.12618 -70.62417 -89.05947 29.4547 77.54634 -18.74555 -2.61015 -2.52141 70.3409 79.56287 24.16029 -69.23168 -33.25492 2.27145 -5.45055 1.17996 2.90849 -5.44494 -1.52493 -3.80203 -6.82722 -2.40042 7.55078 -2.59061 -7.66998 6.32564 2.59168 0.7618
9e-05 0.57924 0.00019 183.64546 0 -3.65994 2.12165 3.09941 -2.49831 -45.69848 4.03154 1.53225 -11.23294 -70.65187 -89.07564 29.41666 77.19928 -18.69181 -2.74243 -2.53316 70.34255 79.43576 24.13707 -69.18465 -33.31142 2.26537 -5.45479 1.17823 2.90805 -5.43718 -1.5157 -3.80214 -6.8491 -2.40243 7.54884 -2.5838 -7.66386 6.32207 2.58744 0.7557
0.0001 0.57924 0.00022 183.64533 0 -3.65948 2.1175 3.11172 -2.50394 -45.67469 4.03105 1.52895 -11.38256 -70.67023 -89.13031 29.40353 76.93312 -18.71974 -2.84208 -2.6097 70.33808 79.38483 24.12893 -69.15227 -33.371 2.26298 -5.45664 1.17614 2.90969 -5.4318 -1.50939 -3.80335 -6.867 -2.40235 7.54643 -2.57531 -7.66236 6.31908 2.5843 0.75017
0.00012 0.57925 0.00023 183.63574 0 -3.65783 2.10719 3.12694 -2.50743 -45.64618 4.02355 1.52307 -11.65068 -70.66288 -89.28663 29.46138 76.92731 -18.98516 -2.83504 -2.86687 70.31954 79.54968 24.16422 -69.16376 -33.43957 2.272 -5.45164 1.17289 2.91712 -5.43351 -1.51139 -3.80795 -6.87359 -2.39602 7.54247 -2.56232 -7.67494 6.31818 2.58433 0.74633
0.00015 0.57926 0.00025 183.62285 0 -3.65579 2.09462 3.14291 -2.51035 -45.61724 4.01434 1.51673 -11.95732 -70.64607 -89.47864 29.54419 77.00667 -19.33256 -2.79458 -3.18646 70.29417 79.79045 24.21464 -69.19047 -33.51006 2.2847 -5.44421 1.16933 2.92659 -5.43767 -1.51645 -3.81358 -6.8758 -2.38763 7.5381 -2.54783 -7.69207 6.3179 2.58548 0.74319
0.00017 0.57927 0.00026 183.61157 0 -3.65398 2.08327 3.15804 -2.51385 -45.59036 4.00708 1.51124 -12.23748 -70.63395 -89.64918 29.61438 77.0432 -19.64026 -2.77323 -3.47186 70.26975 79.99382 24.25764 -69.21019 -33.57753 2.29534 -5.43793 1.16605 2.93503 -5.44064 -1.52033 -3.81847 -6.87932 -2.38046 7.53412 -2.53433 -7.70647 6.31727 2.58614 0.74001
0.0002 0.57928 0.00028 183.59983 0 -3.65191 2.07113 3.17536 -2.51604 -45.55552 3.99491 1.50308 -12.55813 -70.62071 -89.84354 29.68946 77.09171 -19.95886 -2.73721 -3.78342 70.25446 80.20973 24.30288 -69.22971 -33.6549 2.30754 -5.43149 1.16216 2.9439 -5.44382 -1.52334 -3.82452 -6.88579 -2.37219 7.52927 -2.51935 -7.7235 6.31688 2.58672 0.73562
0.00022 0.57929 0.00029 183.58831 0 -3.65031 2.06 3.18826 -2.52076 -45.53714 3.99245 1.50032 -12.80205 -70.60684 -89.99626 29.76081 77.13834 -20.27248 -2.72281 -4.05424 70.21854 80.41704 24.34701 -69.25346 -33.71142 2.3174 -5.42478 1.1595 2.95238 -5.44721 -1.52884 -3.8284 -6.88517 -2.36562 7.52616 -2.50721 -7.73627 6.31615 2.58773 0.73391
